<svg width="354" height="396" viewBox="0 0 354 396" fill="none" xmlns="http://www.w3.org/2000/svg">
<path d="M7 75.9693L4.36509 69.4842C1.72609 70.5564 0 73.1208 0 75.9693H7ZM176.75 388L173.936 394.409L176.746 395.643L179.558 394.412L176.75 388ZM169.75 191C169.75 194.866 172.884 198 176.75 198C180.616 198 183.75 194.866 183.75 191H169.75ZM183.75 280.908C183.75 277.042 180.616 273.908 176.75 273.908C172.884 273.908 169.75 277.042 169.75 280.908H183.75ZM172.18 137.114L169.75 143.678L172.18 137.114ZM342.807 315.304L340 308.892L342.807 315.304ZM11.1859 315.306L8.37171 321.716L11.1859 315.306ZM342.628 74.1983L340 80.6862L342.628 74.1983ZM174.119 8.06899L171.484 1.58383L174.119 8.06899ZM179.383 8.0663L176.754 14.5541L179.383 8.0663ZM171.484 1.58383L4.36509 69.4842L9.63491 82.4545L176.754 14.5541L171.484 1.58383ZM0 75.9693V308.897H14V75.9693H0ZM8.37171 321.716L173.936 394.409L179.565 381.591L14 308.897L8.37171 321.716ZM179.558 394.412L345.614 321.717L340 308.892L173.943 381.588L179.558 394.412ZM354 308.892V80.6862H340V308.892H354ZM345.257 67.7105L182.011 1.57845L176.754 14.5541L340 80.6862L345.257 67.7105ZM169.75 143.678V191H183.75V143.678H169.75ZM183.75 388V331.365H169.75V388H183.75ZM183.75 331.365V280.908H169.75V331.365H183.75ZM174.61 130.549L9.43003 69.4047L4.56997 82.534L169.75 143.678L174.61 130.549ZM183.75 143.678C183.75 137.821 180.104 132.583 174.61 130.549L169.75 143.678H183.75ZM345.614 321.717C350.709 319.486 354 314.453 354 308.892H340L345.614 321.717ZM0 308.897C0 314.453 3.28493 319.482 8.37171 321.716L14 308.897V308.897H0ZM354 80.6862C354 74.9839 350.542 69.8515 345.257 67.7105L340 80.6862H354ZM176.754 14.5541L176.754 14.5541L182.011 1.57845C178.635 0.210855 174.859 0.21278 171.484 1.58383L176.754 14.5541Z" fill="white"/>
<path d="M101.849 219.297C101.248 217.171 99.0375 215.935 96.9117 216.536C94.7859 217.137 93.5499 219.348 94.1509 221.474L101.849 219.297ZM146.835 221.139C147.463 219.021 146.256 216.794 144.139 216.165C142.021 215.537 139.794 216.744 139.165 218.861L146.835 221.139ZM129.093 247.527L125.271 248.705L129.093 247.527ZM134.836 247.497L131.001 246.358L134.836 247.497ZM117.656 228.907L121.453 230.165L117.656 228.907ZM123.37 228.967L119.548 230.145L123.37 228.967ZM111.426 247.717L107.629 246.46L111.426 247.717ZM94.1509 221.474L101.843 248.678L109.541 246.502L101.849 219.297L94.1509 221.474ZM115.224 248.975L121.453 230.165L113.859 227.65L107.629 246.46L115.224 248.975ZM119.548 230.145L125.271 248.705L132.916 246.348L127.193 227.788L119.548 230.145ZM138.67 248.635L146.835 221.139L139.165 218.861L131.001 246.358L138.67 248.635ZM125.271 248.705C127.312 255.325 136.699 255.275 138.67 248.635L131.001 246.358C131.048 246.202 131.181 245.986 131.406 245.827C131.605 245.688 131.801 245.643 131.955 245.643C132.109 245.642 132.305 245.684 132.505 245.821C132.732 245.978 132.868 246.193 132.916 246.348L125.271 248.705ZM121.453 230.165C121.401 230.32 121.264 230.529 121.04 230.679C120.842 230.811 120.648 230.852 120.493 230.851C120.339 230.849 120.145 230.804 119.95 230.667C119.729 230.513 119.596 230.302 119.548 230.145L127.193 227.788C125.185 221.276 116.001 221.181 113.859 227.65L121.453 230.165ZM101.843 248.678C103.72 255.318 113.055 255.524 115.224 248.975L107.629 246.46C107.68 246.305 107.82 246.094 108.049 245.943C108.25 245.81 108.447 245.771 108.601 245.774C108.755 245.778 108.949 245.825 109.145 245.967C109.367 246.128 109.496 246.345 109.541 246.502L101.843 248.678Z" fill="white"/>
<path d="M270.6 255.6C268.867 255.6 267.4 255 266.2 253.8C265 252.6 264.4 251.133 264.4 249.4C264.4 247.667 265 246.2 266.2 245C267.4 243.8 268.867 243.2 270.6 243.2C272.267 243.2 273.667 243.8 274.8 245C276 246.2 276.6 247.667 276.6 249.4C276.6 251.133 276 252.6 274.8 253.8C273.667 255 272.267 255.6 270.6 255.6Z" fill="white"/>
<path d="M158.858 218.945C158.275 216.814 156.075 215.559 153.945 216.142C151.814 216.725 150.559 218.925 151.142 221.055L158.858 218.945ZM202.841 221.115C203.457 218.994 202.237 216.775 200.115 216.159C197.994 215.543 195.775 216.763 195.159 218.885L202.841 221.115ZM191.085 247.263L187.244 246.148L191.085 247.263ZM174.147 229.13L170.341 227.897L174.147 229.13ZM162.47 247.307L158.612 248.362L162.47 247.307ZM151.142 221.055L158.612 248.362L166.328 246.251L158.858 218.945L151.142 221.055ZM172.023 248.671L177.952 230.362L170.341 227.897L164.413 246.207L172.023 248.671ZM176.044 230.343L181.502 248.447L189.161 246.138L183.703 228.033L176.044 230.343ZM194.926 248.378L202.841 221.115L195.159 218.885L187.244 246.148L194.926 248.378ZM181.502 248.447C183.514 255.122 192.983 255.074 194.926 248.378L187.244 246.148C187.289 245.992 187.421 245.774 187.649 245.613C187.849 245.472 188.045 245.428 188.199 245.427C188.352 245.426 188.549 245.468 188.75 245.607C188.98 245.766 189.115 245.983 189.161 246.138L181.502 248.447ZM177.952 230.362C177.902 230.517 177.765 230.728 177.539 230.88C177.34 231.014 177.145 231.055 176.991 231.054C176.837 231.052 176.642 231.007 176.446 230.869C176.223 230.712 176.091 230.499 176.044 230.343L183.703 228.033C181.723 221.464 172.455 221.37 170.341 227.897L177.952 230.362ZM158.612 248.362C160.447 255.07 169.881 255.287 172.023 248.671L164.413 246.207C164.463 246.052 164.601 245.839 164.833 245.685C165.036 245.55 165.233 245.512 165.387 245.515C165.541 245.519 165.736 245.567 165.933 245.71C166.157 245.874 166.286 246.095 166.328 246.251L158.612 248.362Z" fill="white"/>
<path d="M214.852 218.922C214.257 216.795 212.05 215.553 209.922 216.148C207.795 216.743 206.553 218.95 207.148 221.078L214.852 218.922ZM259.835 221.139C260.463 219.021 259.256 216.794 257.139 216.165C255.021 215.537 252.794 216.744 252.165 218.861L259.835 221.139ZM236.37 228.967L232.548 230.145L236.37 228.967ZM218.704 247.537L214.852 248.615L218.704 247.537ZM207.148 221.078L214.852 248.615L222.557 246.459L214.852 218.922L207.148 221.078ZM228.239 248.929L234.453 230.165L226.859 227.65L220.644 246.414L228.239 248.929ZM232.548 230.145L238.271 248.705L245.916 246.348L240.193 227.788L232.548 230.145ZM251.67 248.635L259.835 221.139L252.165 218.861L244.001 246.358L251.67 248.635ZM238.271 248.705C240.312 255.325 249.699 255.275 251.67 248.635L244.001 246.358C244.048 246.202 244.181 245.986 244.406 245.827C244.605 245.688 244.801 245.643 244.955 245.643C245.109 245.642 245.305 245.684 245.505 245.821C245.732 245.978 245.868 246.193 245.916 246.348L238.271 248.705ZM234.453 230.165C234.401 230.32 234.264 230.529 234.04 230.679C233.842 230.811 233.648 230.852 233.493 230.851C233.339 230.849 233.145 230.804 232.95 230.667C232.729 230.513 232.596 230.302 232.548 230.145L240.193 227.788C238.185 221.276 229.001 221.181 226.859 227.65L234.453 230.165ZM214.852 248.615C216.714 255.268 226.066 255.488 228.239 248.929L220.644 246.414C220.695 246.26 220.835 246.048 221.064 245.897C221.266 245.764 221.463 245.725 221.617 245.729C221.771 245.732 221.966 245.78 222.161 245.923C222.383 246.085 222.513 246.302 222.557 246.459L214.852 248.615Z" fill="white"/>
</svg>
