<?xml version="1.0" standalone="no"?>
<!DOCTYPE svg PUBLIC "-//W3C//DTD SVG 20010904//EN"
 "http://www.w3.org/TR/2001/REC-SVG-20010904/DTD/svg10.dtd">
<svg version="1.0" xmlns="http://www.w3.org/2000/svg"
 width="900.000000pt" height="240.000000pt" viewBox="0 0 900.000000 240.000000"
 preserveAspectRatio="xMidYMid meet">
<metadata>
Created by potrace 1.10, written by Peter Selinger 2001-2011
</metadata>
<g transform="translate(0.000000,240.000000) scale(0.100000,-0.100000)"
fill="#000000" stroke="none">
<path d="M0 1200 l0 -1200 4500 0 4500 0 0 1200 0 1200 -4500 0 -4500 0 0
-1200z m4154 787 c17 -13 18 -25 10 -178 l-9 -164 -70 0 -70 0 -12 165 c-12
151 -11 166 4 178 22 16 124 16 147 -1z m2924 -89 c8 -8 12 -63 12 -180 0
-185 4 -197 56 -163 107 70 304 73 414 7 34 -21 110 -94 110 -106 0 -5 6 -17
13 -25 8 -9 21 -41 31 -71 14 -47 16 -98 14 -365 l-3 -310 -78 -3 c-50 -2 -84
1 -93 9 -11 9 -14 63 -14 292 0 183 -4 293 -12 318 -16 55 -71 116 -116 129
-92 28 -102 29 -160 8 -65 -22 -105 -56 -135 -113 -20 -37 -22 -59 -27 -340
l-5 -300 -90 0 -90 0 -3 604 c-2 477 0 606 10 613 20 12 153 9 166 -4z m-6544
-74 c3 -9 6 -114 6 -234 0 -185 2 -221 16 -234 13 -14 50 -16 253 -16 171 0
240 3 249 12 9 9 12 76 12 238 0 162 3 229 12 238 17 17 152 16 167 -2 8 -9
10 -169 9 -577 l-3 -564 -90 0 -90 0 -3 239 c-1 156 -6 244 -13 253 -9 10 -63
13 -248 13 -131 0 -243 -5 -251 -10 -12 -8 -16 -51 -20 -252 l-5 -243 -90 0
-90 0 -3 564 c-1 408 1 568 9 577 17 21 165 19 173 -2z m1474 -233 c124 -38
211 -110 261 -215 49 -105 62 -272 23 -303 -12 -10 -96 -13 -344 -13 l-328 0
0 -24 c0 -66 66 -150 146 -185 60 -27 153 -28 209 -2 46 20 101 71 110 102 4
11 18 24 32 30 32 12 125 12 157 -1 l26 -10 -16 -42 c-23 -60 -89 -144 -140
-179 -91 -62 -127 -72 -274 -72 -133 -1 -136 0 -201 32 -189 94 -278 279 -247
511 32 239 200 387 443 389 52 1 102 -6 143 -18z m927 -4 c3 -12 5 -52 3 -87
l-3 -65 -60 -6 c-101 -11 -165 -49 -196 -118 -20 -42 -22 -70 -28 -336 l-6
-290 -70 -3 c-38 -2 -80 0 -92 3 l-23 5 0 437 c0 507 -7 473 97 473 65 0 103
-20 103 -55 0 -20 6 -19 39 5 46 32 123 58 178 59 47 1 53 -2 58 -22z m670 4
c89 -29 124 -49 181 -106 88 -87 124 -184 124 -331 0 -71 -1 -75 -26 -84 -14
-6 -161 -10 -344 -10 -222 0 -321 -3 -326 -11 -11 -19 17 -87 55 -130 96 -114
292 -120 377 -14 69 85 68 85 136 85 76 0 108 -8 108 -26 0 -32 -55 -125 -101
-171 -27 -28 -80 -65 -117 -83 -66 -33 -69 -33 -202 -34 -133 0 -136 1 -204
34 -114 55 -189 139 -231 260 -27 77 -27 262 -1 340 35 102 117 203 201 246
103 54 263 69 370 35z m1157 0 c132 -45 205 -125 211 -228 l2 -48 -90 0 c-84
0 -89 1 -95 23 -11 46 -56 88 -115 106 -55 18 -57 18 -114 -4 -62 -23 -81 -46
-81 -100 0 -17 9 -39 19 -49 24 -24 115 -67 156 -74 28 -4 46 -10 140 -44 68
-25 99 -44 136 -84 111 -118 58 -314 -107 -389 -43 -20 -66 -23 -179 -23 -127
-1 -132 0 -195 32 -105 52 -161 119 -176 209 -8 49 10 62 83 62 75 0 91 -8
119 -60 33 -61 87 -90 169 -90 69 0 121 22 140 61 42 79 5 119 -150 163 -33 9
-73 21 -90 27 -16 6 -41 14 -55 17 -41 9 -134 68 -158 101 -30 41 -52 104 -52
150 1 72 64 170 135 209 97 53 247 67 347 33z m902 -13 c8 -13 22 -50 31 -83
9 -33 23 -85 31 -115 9 -30 22 -77 29 -105 7 -27 20 -75 29 -105 9 -30 21 -77
27 -105 14 -61 38 -110 48 -99 4 5 36 106 71 224 34 118 68 233 75 255 7 22
18 59 24 82 15 56 42 73 114 73 99 0 90 14 164 -250 9 -30 21 -73 28 -95 7
-22 21 -69 30 -105 10 -36 24 -87 33 -115 8 -27 16 -56 18 -62 6 -23 20 -14
32 21 14 38 40 132 52 186 4 19 19 73 33 120 13 47 27 96 30 110 18 89 41 157
59 173 27 22 139 24 162 2 12 -13 13 -20 1 -52 -24 -68 -58 -177 -105 -338 -5
-16 -24 -79 -43 -140 -19 -60 -52 -164 -72 -230 -20 -66 -42 -126 -47 -132 -7
-9 -39 -13 -93 -13 -54 0 -86 4 -92 13 -5 6 -17 39 -27 72 -10 33 -24 78 -31
100 -22 74 -42 140 -60 200 -10 33 -24 77 -31 98 -8 20 -14 46 -14 56 0 21
-35 69 -44 60 -4 -3 -13 -33 -22 -65 -9 -32 -20 -72 -24 -89 -42 -151 -133
-431 -143 -437 -6 -4 -50 -7 -96 -6 l-83 3 -18 50 c-10 28 -32 97 -50 155 -18
58 -46 145 -61 194 -16 49 -29 95 -29 102 0 8 -7 28 -14 46 -8 18 -29 78 -45
133 -17 55 -38 123 -48 152 -23 72 -13 83 83 83 65 0 75 -3 88 -22z m2352 7
c12 -8 31 -38 42 -67 11 -29 37 -96 57 -148 132 -342 160 -411 170 -411 8 0
57 106 75 161 5 14 17 48 28 75 11 28 39 100 62 160 23 61 51 133 61 160 28
74 48 86 132 83 99 -4 100 -9 38 -153 -28 -65 -51 -122 -51 -126 0 -4 -13 -36
-28 -71 -16 -35 -43 -97 -59 -138 -33 -81 -96 -234 -169 -412 -25 -62 -52
-126 -59 -143 -7 -16 -28 -66 -45 -110 -55 -138 -64 -158 -78 -171 -14 -14
-135 -20 -166 -8 -23 9 -21 22 25 131 23 54 54 132 71 173 16 41 36 90 44 108
12 27 12 37 0 65 -8 17 -28 68 -46 112 -17 44 -38 94 -45 110 -8 17 -39 92
-70 168 -30 76 -71 177 -91 225 -95 230 -94 226 -71 235 29 12 153 7 173 -8z"/>
<path d="M4056 1948 c-17 -10 -18 -19 -11 -125 8 -132 10 -143 36 -143 28 0
36 26 44 147 7 105 6 112 -13 122 -25 13 -32 13 -56 -1z"/>
<path d="M6957 1864 c-4 -4 -7 -263 -7 -576 l0 -568 44 0 44 0 4 273 c5 316
10 342 88 417 132 127 345 95 428 -64 l26 -51 4 -283 4 -283 24 -9 c25 -10 54
-4 66 14 13 19 8 505 -6 577 -15 79 -52 145 -106 192 -75 64 -238 97 -300 62
-14 -8 -33 -14 -42 -15 -25 0 -104 -56 -129 -91 -12 -17 -28 -29 -38 -27 -14
3 -17 29 -21 218 l-5 215 -35 3 c-20 2 -39 0 -43 -4z"/>
<path d="M416 1794 c-14 -14 -16 -76 -16 -539 0 -500 1 -525 18 -534 11 -6 32
-7 48 -2 l29 7 5 245 5 244 300 0 300 0 5 -242 c3 -133 9 -245 13 -249 13 -13
79 -7 88 8 5 7 8 247 6 533 l-2 520 -28 13 c-24 12 -31 11 -52 -2 l-25 -16 -2
-233 -3 -232 -300 0 -300 0 -3 235 c-1 129 -6 237 -10 241 -18 16 -61 18 -76
3z"/>
<path d="M1749 1556 c-149 -48 -222 -122 -270 -270 -37 -115 -22 -268 39 -383
28 -53 98 -123 148 -147 22 -11 47 -23 57 -28 33 -16 159 -27 214 -18 80 13
122 30 181 73 55 40 129 138 117 156 -7 12 -73 15 -99 5 -9 -3 -16 -12 -16
-18 0 -19 -70 -85 -115 -109 -55 -29 -201 -30 -260 -2 -97 46 -155 117 -173
213 -7 38 -6 54 3 62 7 6 145 11 351 12 l339 3 3 68 c6 139 -67 276 -184 345
-28 16 -70 33 -92 37 -23 4 -44 11 -48 16 -10 16 -127 7 -195 -15z m221 -86
c64 -23 114 -62 153 -116 22 -31 28 -52 30 -99 2 -58 2 -59 -28 -66 -53 -12
-514 -10 -537 2 -17 9 -19 17 -13 57 4 26 14 60 22 77 23 45 73 105 87 105 7
0 17 5 24 12 46 46 175 60 262 28z"/>
<path d="M1787 1436 c-72 -26 -136 -87 -160 -152 -9 -26 -14 -51 -9 -56 5 -5
118 -7 253 -6 219 3 244 5 247 20 4 19 -29 93 -55 124 -26 31 -78 64 -100 64
-10 0 -24 5 -29 10 -19 19 -88 17 -147 -4z"/>
<path d="M2840 1570 c-8 -6 -33 -15 -54 -21 -26 -7 -57 -29 -92 -66 -65 -67
-84 -66 -84 6 0 58 -20 77 -71 66 l-29 -7 2 -411 3 -412 41 -3 c36 -3 42 0 48
20 3 13 6 129 6 258 0 262 9 318 58 379 30 37 109 74 185 86 37 6 37 6 37 54
0 35 -4 51 -16 55 -19 7 -16 8 -34 -4z"/>
<path d="M3360 1562 c-170 -57 -249 -140 -294 -308 -21 -79 -20 -145 3 -230
25 -94 43 -132 86 -181 78 -91 184 -136 319 -135 138 0 242 51 320 156 51 69
49 86 -14 86 -41 0 -51 -4 -61 -22 -20 -40 -71 -87 -119 -111 -64 -31 -205
-31 -268 2 -58 29 -116 84 -140 129 -26 51 -38 132 -20 143 7 5 165 9 351 9
l337 0 0 90 c0 81 -3 96 -35 164 -38 81 -97 142 -169 175 -117 52 -209 63
-296 33z m196 -88 c109 -37 175 -106 196 -206 10 -46 10 -60 0 -70 -10 -10
-81 -13 -292 -13 -153 0 -282 3 -286 8 -12 12 -4 87 13 121 72 140 226 207
369 160z"/>
<path d="M3440 1449 c-19 -5 -48 -11 -65 -15 -49 -11 -111 -69 -140 -130 -15
-31 -24 -62 -21 -70 5 -12 45 -14 248 -12 l243 3 3 27 c7 58 -82 167 -148 181
-14 3 -38 9 -55 14 -16 5 -46 6 -65 2z"/>
<path d="M4535 1563 c-96 -36 -119 -49 -155 -91 -68 -77 -65 -194 7 -266 47
-47 85 -64 278 -121 166 -49 221 -120 165 -211 -37 -58 -82 -78 -185 -78 -76
0 -96 3 -125 21 -41 25 -78 63 -94 95 -9 18 -21 24 -54 26 -54 4 -63 -14 -34
-73 27 -55 95 -112 164 -137 71 -26 215 -27 278 -2 109 42 160 112 160 217 0
56 -4 70 -31 106 -30 42 -115 91 -194 112 -112 29 -192 58 -224 81 -128 91
-40 248 139 248 32 0 61 -4 64 -9 3 -5 17 -12 32 -15 30 -8 94 -63 94 -82 0
-38 93 -63 106 -29 15 38 -48 140 -105 170 -101 51 -211 66 -286 38z"/>
<path d="M5550 1550 c-12 -7 -12 -16 -3 -47 37 -127 57 -192 68 -223 8 -19 28
-82 45 -140 18 -58 38 -123 46 -145 7 -22 27 -87 45 -145 17 -58 38 -111 45
-119 15 -16 90 -17 109 -1 7 6 16 23 19 38 6 24 49 166 81 267 7 22 20 67 30
100 10 33 23 78 30 100 8 22 23 73 36 113 29 95 46 94 77 -8 36 -115 80 -260
97 -315 8 -27 28 -92 45 -144 16 -52 30 -102 30 -110 1 -35 28 -54 76 -54 48
0 74 18 74 51 0 8 13 53 29 100 16 48 50 155 76 237 26 83 67 213 91 290 42
130 44 140 28 152 -41 30 -78 8 -93 -54 -14 -53 -31 -120 -54 -203 -8 -30 -23
-84 -32 -120 -10 -36 -23 -85 -30 -110 -7 -25 -20 -74 -30 -110 -49 -187 -58
-184 -120 40 -10 36 -30 106 -45 155 -15 50 -33 110 -39 135 -7 25 -19 68 -27
95 -8 28 -22 75 -30 105 -16 60 -34 80 -73 80 -68 0 -62 11 -147 -280 -9 -30
-23 -75 -30 -100 -8 -25 -35 -115 -60 -200 -25 -85 -50 -159 -55 -164 -12 -14
-36 21 -44 64 -6 33 -22 92 -90 330 -52 184 -57 205 -65 246 -13 60 -30 92
-54 98 -29 8 -39 7 -56 -4z"/>
<path d="M7908 1553 c-24 -6 -23 -20 7 -81 14 -29 25 -55 25 -59 0 -5 21 -57
46 -118 25 -60 59 -144 76 -185 28 -72 42 -105 66 -160 55 -125 92 -223 92
-240 0 -12 -18 -65 -40 -118 -55 -130 -61 -144 -71 -165 -19 -37 -40 -108 -34
-117 10 -17 71 -11 87 8 8 9 25 42 37 72 12 30 26 64 30 75 5 11 23 56 41 100
36 90 57 141 72 169 6 11 14 31 18 45 5 14 38 98 75 186 36 88 76 185 87 215
11 30 25 60 30 67 5 6 13 24 18 40 4 15 29 77 54 138 40 94 44 111 32 123 -10
10 -25 13 -48 8 -28 -5 -36 -13 -51 -54 -11 -26 -23 -56 -27 -67 -5 -11 -25
-63 -45 -115 -20 -52 -42 -111 -50 -130 -8 -19 -30 -78 -50 -130 -20 -52 -40
-103 -45 -112 -6 -10 -10 -23 -10 -30 0 -7 -9 -28 -21 -47 -30 -50 -33 -45
-134 219 -58 152 -121 312 -163 413 -20 48 -52 64 -104 50z"/>
</g>
</svg>
