<svg width="369" height="135" viewBox="0 0 369 135" fill="none" xmlns="http://www.w3.org/2000/svg">
<g filter="url(#filter0_i)">
<path fill-rule="evenodd" clip-rule="evenodd" d="M0.970886 68.9645L16.2805 52.5598C31.59 36.1551 62.2092 3.3457 92.8284 0.611578C123.448 -2.12254 154.067 25.2186 184.686 27.9528C215.305 30.6869 245.924 8.81393 276.543 6.07981C307.162 3.3457 337.782 19.7504 353.091 27.9528L368.401 36.1551V134.583H353.091C337.782 134.583 307.162 134.583 276.543 134.583C245.924 134.583 215.305 134.583 184.686 134.583C154.067 134.583 123.448 134.583 92.8284 134.583C62.2092 134.583 31.59 134.583 16.2805 134.583H0.970886V68.9645Z" fill="#2E516B"/>
<path fill-rule="evenodd" clip-rule="evenodd" d="M0.970886 68.9645L16.2805 52.5598C31.59 36.1551 62.2092 3.3457 92.8284 0.611578C123.448 -2.12254 154.067 25.2186 184.686 27.9528C215.305 30.6869 245.924 8.81393 276.543 6.07981C307.162 3.3457 337.782 19.7504 353.091 27.9528L368.401 36.1551V134.583H353.091C337.782 134.583 307.162 134.583 276.543 134.583C245.924 134.583 215.305 134.583 184.686 134.583C154.067 134.583 123.448 134.583 92.8284 134.583C62.2092 134.583 31.59 134.583 16.2805 134.583H0.970886V68.9645Z" stroke="#2E516B"/>
</g>
<defs>
<filter id="filter0_i" x="0.970886" y="0.419678" width="373.43" height="141.164" filterUnits="userSpaceOnUse" color-interpolation-filters="sRGB">
<feFlood flood-opacity="0" result="BackgroundImageFix"/>
<feBlend mode="normal" in="SourceGraphic" in2="BackgroundImageFix" result="shape"/>
<feColorMatrix in="SourceAlpha" type="matrix" values="0 0 0 0 0 0 0 0 0 0 0 0 0 0 0 0 0 0 127 0" result="hardAlpha"/>
<feOffset dx="6" dy="7"/>
<feGaussianBlur stdDeviation="5"/>
<feComposite in2="hardAlpha" operator="arithmetic" k2="-1" k3="1"/>
<feColorMatrix type="matrix" values="0 0 0 0 0 0 0 0 0 0 0 0 0 0 0 0 0 0 0.25 0"/>
<feBlend mode="normal" in2="shape" result="effect1_innerShadow"/>
</filter>
</defs>
</svg>
